<svg width="256" height="213" viewBox="0 0 256 213" fill="none" xmlns="http://www.w3.org/2000/svg">
<path d="M198.202 174.171H178.687C174.03 174.171 170.257 170.397 170.257 165.741C170.257 161.085 174.03 157.311 178.687 157.311H198.202C219.842 157.311 237.446 139.706 237.446 118.066C237.446 96.4266 219.842 78.8248 198.202 78.8248H197.294C193.015 78.8248 189.412 75.6157 188.921 71.3642C185.335 40.384 159.084 17.0216 127.856 17.0216C96.6318 17.0216 70.3779 40.384 66.7924 71.3614C66.3006 75.6157 62.6982 78.8219 58.4186 78.8219H57.511C35.8711 78.8248 18.2665 96.4266 18.2665 118.066C18.2665 139.706 35.8711 157.311 57.511 157.311H77.0264C81.6826 157.311 85.4564 161.085 85.4564 165.741C85.4564 170.397 81.6826 174.171 77.0264 174.171H57.511C26.5757 174.171 1.40649 149.002 1.40649 118.066C1.40649 89.2639 23.2233 65.4632 51.1969 62.316C58.7193 26.4211 90.4947 0.161621 127.856 0.161621C165.221 0.161621 196.997 26.4211 204.516 62.316C232.49 65.4632 254.306 89.2667 254.306 118.066C254.306 149.002 229.137 174.171 198.202 174.171Z" fill="#52489C"/>
<path d="M127.857 209.552C93.3301 209.552 65.2385 181.46 65.2385 146.934C65.2385 112.407 93.3301 84.3156 127.857 84.3156C162.383 84.3156 190.472 112.404 190.472 146.931C190.472 181.457 162.383 209.552 127.857 209.552ZM127.857 101.176C102.626 101.176 82.0985 121.703 82.0985 146.931C82.0985 172.162 102.626 192.689 127.857 192.689C153.088 192.689 173.612 172.162 173.612 146.931C173.612 121.703 153.088 101.176 127.857 101.176Z" fill="#EC2929"/>
<path d="M89.5985 193.737C87.4404 193.737 85.2823 192.914 83.6384 191.267C80.3451 187.976 80.3451 182.637 83.6384 179.347L160.267 102.715C163.56 99.422 168.894 99.422 172.187 102.715C175.48 106.006 175.48 111.345 172.187 114.635L95.5585 191.267C93.9146 192.914 91.7565 193.737 89.5985 193.737Z" fill="#EC2929"/>
</svg>
